<svg preserveAspectRatio="none" width="40" height="64" overflow="visible" style="display: block;" viewBox="0 0 40 64" fill="none" xmlns="http://www.w3.org/2000/svg">
<g id="chess pieces">
<path id="rook" d="M11.3301 1.01953C13.8346 0.998179 16.529 0.961819 18.8672 1.10449H18.8838C19.6907 1.14002 19.9408 1.18432 20.8193 1.03516L28.5 1.00879C28.4912 2.06147 28.5024 3.11345 28.5146 4.15527C28.5309 5.54054 28.5491 6.90717 28.5264 8.2666C28.5214 8.56922 28.4856 8.98141 28.4521 9.55371C28.4206 10.0939 28.3953 10.7264 28.4238 11.3545C28.452 11.9746 28.5345 12.6472 28.748 13.248C28.9621 13.8504 29.346 14.4804 30.0371 14.8438L30.8701 15.2822L31.3574 14.4766C31.4773 14.2785 31.5487 14.057 31.5947 13.8818C31.6448 13.6912 31.6853 13.4765 31.7197 13.251C31.7887 12.7991 31.8411 12.2422 31.8818 11.6279C31.9635 10.3959 32.0032 8.85916 32.0205 7.31348C32.0378 5.76465 32.033 4.19154 32.0264 2.88281C32.0227 2.16462 32.0185 1.53201 32.0166 1.02539L38.999 1.03027L38.9922 62.999L1 62.9707L1.0127 1.01562L7.60156 1.0293C7.58336 2.4742 7.54833 4.99496 7.55566 7.32422C7.56058 8.88495 7.58447 10.4316 7.64746 11.6553C7.67885 12.265 7.72058 12.8122 7.77734 13.248C7.80563 13.4652 7.84066 13.6722 7.88379 13.8535C7.92063 14.0084 7.98571 14.2455 8.11816 14.4541L8.33105 14.7891L8.71484 14.8867L9.16699 15.002L9.46777 15.0791L9.75977 14.9717L10.1436 14.8301L10.2891 14.7764L10.4111 14.6816C10.6976 14.4593 10.8259 14.1476 10.8828 13.9951C10.955 13.8015 11.0081 13.5837 11.0498 13.3682C11.1339 12.9333 11.1949 12.3828 11.2402 11.7754C11.3314 10.5532 11.3686 8.98599 11.3789 7.4043C11.3893 5.81829 11.3731 4.19778 11.3545 2.8623C11.3445 2.14558 11.3373 1.51769 11.3301 1.01953Z" fill="var(--fill-0, #FEFEFE)" stroke="var(--stroke-0, #121212)" stroke-width="2"/>
</g>
</svg>
