<svg preserveAspectRatio="none" width="44" height="84" overflow="visible" style="display: block;" viewBox="0 0 44.0049 84.0024" fill="none" xmlns="http://www.w3.org/2000/svg">
<g id="chess pieces">
<path id="king" d="M12.0566 1.00037L31.9521 1.00428H32.9531L32.9521 2.00526L32.9433 8.13514C35.9567 8.1457 38.9705 8.14433 41.9834 8.12635L42.9883 8.12049L42.9892 9.12537L43.0029 23.7338L43.0039 24.7435L41.9951 24.7347C38.9719 24.7105 35.9472 24.7065 32.9228 24.7211L32.918 29.8353L39.4258 29.7972L40.4316 29.7914V30.7972L40.4219 82.0004L40.4209 83.0014L39.4209 83.0004L32.4805 82.9935V82.9926L4.61229 82.974L3.61327 82.973V81.974L3.61132 30.8383V29.8412L4.60839 29.8383L11.0459 29.8197L11.0351 24.7074L2.00292 24.7055H1.00194L1.00292 23.7045L1.0244 9.14686L1.02538 8.15076L2.02147 8.14784L11.0508 8.12635L11.0566 1.9994L11.0576 1.00037H12.0566Z" fill="var(--fill-0, #121212)" stroke="var(--stroke-0, #FEFEFE)" stroke-width="2"/>
</g>
</svg>
