<svg preserveAspectRatio="none" width="40" height="76" overflow="visible" style="display: block;" viewBox="0 0 40 76" fill="none" xmlns="http://www.w3.org/2000/svg">
<g id="chess pieces">
<path id="queen" d="M22.9609 1.00781C22.9548 2.26042 22.9552 3.51302 22.9658 4.76562L22.9746 5.76074L23.9697 5.75684L26.4463 5.74902C26.3825 7.5957 26.4217 9.5525 26.415 11.292L26.4111 12.2969L27.416 12.2959L30.8271 12.292C30.8055 14.1656 30.8113 16.0391 30.8457 17.9121L30.8633 18.9053L31.8564 18.8936L33.9375 18.8691L33.9336 23.9893L33.9326 24.9971L34.9414 24.9893L38.8232 24.959C39.189 41.4578 38.8694 58.4013 38.8789 74.9893H25.3105C17.2078 75.0086 9.10512 74.9992 1 74.9639L1.01562 24.9834L4.92871 24.9941L5.93848 24.9971L5.93066 23.9873L5.89258 18.874L8.00098 18.8848L8.96973 18.8887L9.00488 17.9209C9.07168 16.0785 9.04117 14.1373 9.02637 12.2939L12.3818 12.3027L13.3857 12.3047L13.3848 11.3018L13.3789 5.7627L15.7754 5.73633L16.7617 5.72461L16.7637 4.7373L16.7695 1.00098L22.9609 1.00781Z" fill="var(--fill-0, #FEFEFE)" stroke="var(--stroke-0, #121212)" stroke-width="2"/>
</g>
</svg>
