<svg preserveAspectRatio="none" width="44" height="80" overflow="visible" style="display: block;" viewBox="0 0 44.0005 80.0025" fill="none" xmlns="http://www.w3.org/2000/svg">
<g id="chess pieces">
<path id="queen" d="M17.7731 1.00248L25.9684 1.01224L26.9752 1.01419L26.9664 2.02103C26.9558 3.26579 26.9554 4.51065 26.9616 5.75541L29.4909 5.74857L30.5573 5.74466L30.4918 6.81009C30.3844 8.55618 30.4082 10.4454 30.4137 12.2964L33.8395 12.2935L34.858 12.2925L34.8405 13.3111C34.8086 15.1688 34.8072 17.0269 34.8317 18.8853L36.9274 18.8609L37.9401 18.8501L37.9391 19.8619L37.9342 24.9839L41.7955 24.9546L42.7789 24.9468L42.8024 25.9302C43.2123 43.0968 42.8543 60.8171 42.8785 77.9908L42.8795 78.9917H27.316C18.8769 79.0119 10.4376 79.0025 1.99574 78.9634L1.00062 78.9595V77.9634L1.01722 25.9829V24.981L2.01917 24.9839L5.92445 24.9937L5.88636 19.8794L5.87855 18.8677L6.89027 18.8726L9.03187 18.8824C9.06627 17.051 9.0248 15.1634 9.02015 13.2964L9.01722 12.2915L10.0221 12.2945L13.3844 12.3023L13.3795 6.77787L13.3785 5.78861L14.3688 5.77689L16.7653 5.74955L16.7721 2.00052L16.7741 1.0015L17.7731 1.00248Z" fill="var(--fill-0, #121212)" stroke="var(--stroke-0, #FEFEFE)" stroke-width="2"/>
</g>
</svg>
