<svg preserveAspectRatio="none" width="40" height="80" overflow="visible" style="display: block;" viewBox="0 0 40 80" fill="none" xmlns="http://www.w3.org/2000/svg">
<g id="chess pieces">
<path id="king" d="M28.9473 1.00293L28.9395 7.13184L28.9375 8.12891L29.9346 8.13379C32.9518 8.14752 35.9693 8.14373 38.9863 8.12891L38.999 20.7275C35.9717 20.7076 32.9431 20.7068 29.915 20.7256L28.9229 20.7314L28.9219 21.7246L28.9141 28.8408L28.9131 29.8486L29.9199 29.8418L36.4277 29.8027L36.4189 78.998L30.4805 78.9932H30.4795L3.60938 78.9736L3.6084 29.835L10.0479 29.8174L11.0469 29.8145L11.0449 28.8154L11.0312 21.7061L11.0303 20.709L10.0322 20.708L1.00098 20.7051L1.01953 8.14453L10.0508 8.12402L11.0479 8.12109V7.125L11.0527 1L28.9473 1.00293Z" fill="var(--fill-0, #FEFEFE)" stroke="var(--stroke-0, #121212)" stroke-width="2"/>
</g>
</svg>
