<svg preserveAspectRatio="none" width="44" height="68" overflow="visible" style="display: block;" viewBox="0 0 44.0007 68.0021" fill="none" xmlns="http://www.w3.org/2000/svg">
<g id="chess pieces">
<path id="rook" d="M42.9926 66.0007V67.0016L41.9916 67.0007L1.99945 66.9714L1.00042 66.9704V65.9704L1.01409 2.01531V1.01433L2.01605 1.01531L10.6157 1.03191L11.518 1.03386L12.3119 1.02898C15.0213 1.01457 18.2326 0.942154 20.9711 1.10808L20.9721 1.1071C21.4393 1.12767 21.6189 1.14348 21.8227 1.14031C21.9908 1.13768 22.175 1.12057 22.5668 1.05144L22.6508 1.03679H22.7368L31.5121 1.00652L32.5385 1.00359L32.5375 1.02605H33.02L42.0014 1.03191L43.0004 1.03288V2.03191L42.9926 66.0007Z" fill="var(--fill-0, #121212)" stroke="var(--stroke-0, #FEFEFE)" stroke-width="2"/>
</g>
</svg>
