<svg preserveAspectRatio="none" width="44" height="68" overflow="visible" style="display: block;" viewBox="0 0 44.1457 68.0008" fill="none" xmlns="http://www.w3.org/2000/svg">
<g id="chess pieces">
<path id="knight" d="M42.9572 52.4412V52.4422C42.9545 56.8583 42.8264 61.6003 43.0421 65.91L43.0939 66.9598L42.0441 66.9607L16.9318 66.9813H16.9308C12.1854 66.9813 6.75395 67.0596 2.00992 66.9012L1.02164 66.868L1.04312 65.8797C1.50731 44.8355 1.05087 23.1478 1.10465 1.99785L1.10757 1.00078H2.10562L42.0089 1.01641H43.0431L43.008 2.05059C42.8556 6.46223 42.957 11.1242 42.9435 15.6131L42.9406 16.6385L41.9152 16.6092C36.298 16.4504 29.1478 16.5586 23.215 16.5604L23.2336 27.7352L41.9611 27.7547L42.9601 27.7557V28.7547L42.9572 52.4412Z" fill="var(--fill-0, #121212)" stroke="var(--stroke-0, #FEFEFE)" stroke-width="2"/>
</g>
</svg>
