<svg preserveAspectRatio="none" width="40" height="44" overflow="visible" style="display: block;" viewBox="0 0 40 44" fill="none" xmlns="http://www.w3.org/2000/svg">
<g id="chess pieces">
<path id="pawn" d="M11.543 1.01074C17.069 0.986309 22.689 1.0128 28.2354 1.02148C28.1427 4.07661 28.1598 7.53857 28.3291 10.4902L28.3838 11.4404L29.335 11.4326C32.5341 11.4086 35.7598 11.4124 38.9727 11.4102C38.6966 21.7822 38.9559 32.6309 38.9893 42.9707H29.6289C20.0893 42.9522 10.5522 42.9609 1.0127 42.9961L1 11.4189C4.16334 11.4005 7.32691 11.4145 10.4902 11.4619L11.4834 11.4766L11.5049 10.4834C11.5431 8.72717 11.5289 6.97273 11.5205 5.23828C11.5136 3.82151 11.5114 2.4154 11.543 1.01074Z" fill="var(--fill-0, #FEFEFE)" stroke="var(--stroke-0, #121212)" stroke-width="2"/>
</g>
</svg>
