<svg preserveAspectRatio="none" width="44" height="48" overflow="visible" style="display: block;" viewBox="0 0 44.0623 48.0078" fill="none" xmlns="http://www.w3.org/2000/svg">
<g id="chess pieces">
<path id="pawn" d="M12.5653 1.01464C18.7534 0.979933 25.0817 1.01784 31.2723 1.02441L32.3123 1.02538L32.2703 2.06347C32.154 4.98807 32.1442 8.42093 32.2791 11.4268C35.5146 11.4079 38.7755 11.4142 41.9998 11.4102L43.0311 11.4082L43.0008 12.4404C42.6688 23.4166 42.9759 34.9173 42.9949 45.9697L42.9969 46.9707H41.9949L31.6287 46.9717H31.6268C21.7565 46.9525 11.8886 46.9617 2.01838 47L1.01447 47.0039V46L1.0008 12.4258V11.4326L1.99299 11.4248C5.16876 11.3994 8.34453 11.4086 11.5203 11.4492C11.5364 10.0556 11.5282 8.65934 11.5213 7.24804C11.5129 5.50804 11.5095 3.74828 11.5711 1.97949L11.6043 1.01953L12.5653 1.01464Z" fill="var(--fill-0, #121212)" stroke="var(--stroke-0, #FEFEFE)" stroke-width="2"/>
</g>
</svg>
