<svg width="62" height="64" viewBox="0 0 62 64" fill="none" xmlns="http://www.w3.org/2000/svg">
<g id="chess pieces 3">
<g id="piece=queen, white=true">
<path id="queen" d="M30.8867 2.95898C32.6046 3.43633 34.0431 4.20419 34.9961 5.45801C35.9697 6.73899 36.1628 8.1652 36.127 9.36133C36.0932 10.487 35.8372 11.703 35.665 12.6299C35.4748 13.6538 35.3387 14.5277 35.3545 15.3652V15.3662C35.3829 16.8808 35.535 20.2138 35.9053 23.3975C36.0897 24.9832 36.3226 26.4739 36.6045 27.6631C36.7894 27.3127 36.9754 26.8804 37.1504 26.3623C37.8177 24.3862 38.0965 21.9546 38.2119 20.5059C38.2578 19.9299 38.2522 19.2618 38.25 18.4004C38.2479 17.5899 38.249 16.6348 38.3408 15.6895C38.518 13.8651 39.0881 11.4197 41.3389 9.92578L41.708 9.67969L42.1416 9.58203C43.8367 9.19878 45.6326 9.24076 47.0293 10.3564C48.4076 11.4576 48.7293 13.0751 48.7598 14.2471C48.8198 16.5617 47.8207 19.1749 47.1514 20.5244C46.7119 21.4104 46.2279 23.4724 45.9941 25.8398C45.8823 26.973 45.8373 28.0819 45.8691 29.0332C45.8732 29.154 45.8785 29.2701 45.8848 29.3809C46.0415 29.1237 46.2007 28.827 46.3574 28.4912C46.9679 27.1833 47.3931 25.6665 47.7031 24.5312V24.5303C47.8324 24.0568 47.9364 23.422 48.1211 22.4492C48.2884 21.5679 48.5101 20.4945 48.8604 19.4785C49.2012 18.49 49.7411 17.3181 50.6816 16.4141C51.658 15.4757 52.949 14.943 54.46 15.0312L54.7646 15.0576L54.8994 15.0723L55.0312 15.1025C55.9139 15.3027 56.7491 15.6907 57.4238 16.3418C58.1056 17 58.4855 17.7941 58.6641 18.5762C58.9938 20.021 58.659 21.5239 58.3223 22.6221C57.9658 23.7845 57.4558 24.9466 57.0898 25.7969C56.8952 26.2491 56.7474 26.5984 56.6436 26.8779C56.5858 27.0334 56.5605 27.1177 56.5518 27.1475C56.4423 28.4854 55.9992 29.9816 55.4932 31.3857C54.9609 32.8626 54.2842 34.4369 53.6328 35.9189C52.9677 37.4323 52.338 38.8286 51.8389 40.0635C51.5901 40.6788 51.4007 41.1929 51.2637 41.6104C51.4494 41.8275 51.6312 42.0634 51.7852 42.3125C52.3626 43.2472 52.5716 44.2971 52.3936 45.4844L52.2432 46.4844L51.4258 47.0791C50.4512 47.7881 50.142 48.228 49.9336 48.6494C49.7194 49.0825 49.5919 49.5017 49.3691 50.2285C50.2772 51.2862 50.9205 52.3014 51.3789 53.4482C51.9528 54.8843 52.1812 56.4189 52.4482 58.0801L52.8975 60.8779H50.0645L31.4814 60.8828H31.4805L11.4785 60.8838H8.62793L9.09766 58.0723C9.42852 56.0883 9.66933 54.6287 10.2607 53.2803C10.7146 52.2456 11.3462 51.3365 12.1836 50.2764C11.8766 49.5303 11.659 49.1653 11.4463 48.8516C11.1405 48.4008 10.413 47.4993 9.52051 46.0098L9.10156 45.3115L9.19238 44.501C9.26542 43.8473 9.36709 43.0285 9.92383 42.2305C10.0163 42.098 10.1172 41.9731 10.2109 41.8643C10.169 41.7431 10.1237 41.6116 10.0723 41.4707C9.77143 40.647 9.35621 39.6189 8.90527 38.5244C8.16067 36.7172 7.24947 34.5755 6.79688 33.2402L6.63281 32.7207C5.90412 30.1671 5.50756 28.4412 5.03125 25.9004C4.04215 24.8567 2.98879 23.4541 2.58594 21.8428C2.32635 20.8044 2.32243 19.6172 2.84473 18.4414C3.35936 17.283 4.27657 16.3785 5.41992 15.6885L5.7998 15.46L6.23633 15.3799C7.48647 15.1532 8.7257 15.2446 9.85059 15.8066C10.9598 16.3609 11.6972 17.2431 12.1963 18.124C13.1159 19.7475 13.5168 21.9435 13.8486 23.6475C14.2222 25.5659 14.5527 27.1963 15.1543 28.4814C15.3381 28.874 15.5334 29.2039 15.7471 29.4795C15.7553 29.4065 15.7668 29.3301 15.7734 29.25C15.874 28.0329 15.7292 26.4543 15.4023 24.708C14.7513 21.2296 13.4887 17.6366 12.832 16.1094L12.7275 15.8662L12.6787 15.6064C12.2963 13.597 13.3932 11.7559 14.4844 10.7295C15.536 9.7404 17.7777 8.4907 19.9932 9.91016C22.1547 11.2953 22.9157 13.6267 23.2422 15.6104C23.5674 17.5866 23.5584 19.9297 23.623 21.8271C23.6933 23.8893 23.8464 25.5559 24.3125 26.8125C24.4635 27.2195 24.6393 27.5651 24.8545 27.8564C24.9018 27.6733 24.9513 27.4786 24.999 27.2715C25.2636 26.1224 25.4943 24.7666 25.6826 23.3643C26.0622 20.538 26.2458 17.705 26.2236 16.2334C26.21 15.3276 26.0718 14.4461 25.8955 13.4766C25.7313 12.5732 25.503 11.4555 25.4346 10.3867C25.3626 9.26238 25.4469 8.00317 25.9961 6.72266C26.549 5.43377 27.4863 4.32388 28.7988 3.34766L29.748 2.64258L30.8867 2.95898Z" fill="#FBFBFA" stroke="black" stroke-width="4.82881"/>
</g>
</g>
</svg>
