<svg width="45" height="67" viewBox="0 0 45 67" fill="none" xmlns="http://www.w3.org/2000/svg">
<g id="chess pieces 3">
<g id="piece=bishop, white=false">
<path id="bishop" d="M20.4628 0.0713119C20.9197 0.03453 21.3774 0.0108512 21.8358 0.000594654C23.4184 -0.0259308 26.7879 0.837733 27.6374 2.0335C30.9782 6.73629 25.5133 12.082 24.2344 16.562C23.1543 20.347 22.9396 22.6038 22.5604 26.3145L27.4821 27.5383C27.4595 24.282 27.6869 15.9601 31.0634 14.5903C35.7719 15.6856 35.972 26.7715 33.044 29.9694C31.7549 31.377 31.2781 32.1279 29.8114 33.4647C30.1803 34.1427 30.5152 34.8388 30.8152 35.5497C32.2323 38.9629 31.6802 40.6139 30.4208 43.7948C33.5133 48.2592 36.5712 52.7855 39.9035 57.077C41.4855 59.1142 45.5138 63.9828 44.2699 66.7132L43.4936 66.9837L0 66.9933C0.0806374 66.0129 0.345176 63.4809 0.83572 62.7266C4.92276 56.439 9.67896 49.9537 13.8629 43.7177C12.3527 39.1949 12.7764 37.4959 14.8132 33.4595C6.52703 26.0886 7.88973 15.8801 18.0776 11.4129C14.0224 6.99834 15.2592 2.60608 20.4628 0.0713119Z" fill="black"/>
</g>
</g>
</svg>
