<svg width="65" height="68" viewBox="0 0 65 68" fill="none" xmlns="http://www.w3.org/2000/svg">
<g id="chess pieces 3">
<g id="piece=knight, white=false">
<path id="knight" d="M16.3625 0.198034C17.7655 1.25198 19.8352 4.30418 20.9316 5.82144C22.7399 3.901 24.5284 1.95935 26.2975 0L28.1196 6.73744L31.3437 8.72508L35.2182 7.50139C35.6688 7.84798 36.1151 8.19811 36.5572 8.55532C50.1605 19.5439 58.1443 39.1127 59.9427 56.234C63.3005 60.1739 63.8063 62.4834 64.2505 67.4065C48.8441 67.5939 33.0509 67.4242 17.6152 67.4313L3.1673 67.4206C4.31921 48.4885 26.5433 52.0429 27.1212 29.9702C24.2639 32.071 23.4122 32.3328 20.0877 31.0454C19.4515 31.8129 9.34066 41.0614 8.49574 41.5707C6.86743 41.5353 7.35302 41.5318 5.76857 40.5662C3.92558 40.7749 2.84334 40.7184 1.45234 39.1799C-3.74524 33.6803 6.59617 24.4069 7.67345 19.9648C9.62219 11.9294 9.0503 12.8313 15.0252 6.90724C15.4118 4.53763 15.705 2.51459 16.3625 0.198034Z" fill="black"/>
</g>
</g>
</svg>
