<svg width="61" height="68" viewBox="0 0 61 68" fill="none" xmlns="http://www.w3.org/2000/svg">
<g id="chess pieces 3">
<g id="piece=king, white=false">
<path id="king" d="M28.1267 0.0507169C43.1889 -0.847612 35.494 10.378 33.7193 18.6362C33.3791 20.2207 33.7451 22.8379 35.708 23.089C37.4074 22.1199 38.1176 19.7927 39.7473 18.4877C51.503 9.07645 66.4308 21.363 58.1015 34.5197C56.7558 36.6488 51.1929 40.5604 50.9007 42.5586C52.013 43.609 53.2629 44.2669 52.7465 45.7877C49.9225 47.1352 49.7011 49.5932 48.7334 52.4544C49.0782 53.1865 49.8298 55.2343 50.1379 55.7683C53.1568 61.0098 53.9978 60.9815 54.6606 66.9408L32.1147 66.9444C27.5417 66.9302 9.93162 67.3511 6.45042 66.6296L6.17385 66.1592C5.81417 61.8091 9.83294 57.6322 11.8022 52.3448C11.6048 51.7329 10.9619 49.6852 10.6747 49.1653C9.82941 47.6374 8.3454 46.5233 8.0133 44.6099C8.36803 43.5136 9.21331 43.1316 10.1994 42.4384C7.0651 39.3331 1.96832 35.0926 0.648061 30.8627C-1.53021 23.8847 1.90219 17.3524 9.14859 15.5911C13.9752 14.4346 19.0366 16.1464 22.1705 19.9979C23.0716 21.1084 23.5721 22.4099 24.7289 23.1279L25.6308 22.9121C31.4462 17.9112 15.7626 4.36906 28.1267 0.0507169Z" fill="black"/>
</g>
</g>
</svg>
