<svg width="45" height="63" viewBox="0 0 45 63" fill="none" xmlns="http://www.w3.org/2000/svg">
<g id="chess pieces 3">
<g id="piece=bishop, white=true">
<path id="bishop" d="M20.4971 2.45361C21.4834 2.37656 22.8539 2.39451 24.1875 2.66357C25.4121 2.91067 27.1747 3.48091 28.2539 4.96533V4.96631C30.0461 7.43251 29.7109 10.0964 29.001 12.2202L30.5957 13.8999C33.5254 16.9853 35.0884 20.24 34.8516 23.7261C34.6535 26.6383 33.2202 29.2886 31.1201 31.7427C31.6701 33.0294 32.0547 34.2142 32.0693 35.5024C32.0828 36.6911 31.7763 37.8319 31.3535 39.0503C34.0675 42.9245 36.8483 46.7338 39.6611 50.5815C40.1804 51.2918 40.9854 52.3919 41.5156 53.6216C42.0494 54.8596 42.4686 56.6062 41.6895 58.4116L41.1855 59.5786L39.9385 59.8237L38.8955 60.0288L38.666 60.0747H38.4316C37.3201 60.0756 34.8212 60.1022 31.626 60.1294C28.4426 60.1565 24.5908 60.1838 20.8066 60.186C17.0264 60.1883 13.2962 60.1657 10.3613 60.0913C8.89696 60.0542 7.60688 60.0028 6.59766 59.9341C6.09453 59.8998 5.63555 59.8594 5.24805 59.8101C4.91676 59.7679 4.45343 59.6989 4.04688 59.5552L2.71875 59.0854L2.47363 57.6987C2.30033 56.7164 2.53567 55.7344 2.76953 55.0132C3.02589 54.2227 3.40773 53.3763 3.84277 52.5327C4.71563 50.8402 5.92901 48.9135 7.18457 47.0483C8.44781 45.1718 9.79325 43.2998 10.9502 41.7085C11.7537 40.6033 12.4458 39.6587 12.9727 38.9263C12.6467 37.5792 12.4445 36.3271 12.5479 35.0474C12.638 33.9311 12.9494 32.9067 13.4219 31.8521C13.0491 31.4481 12.6825 31.0202 12.335 30.564C10.2543 27.8325 9.29362 25.2535 9.33984 22.8003C9.38619 20.3427 10.4365 18.3941 11.6221 16.9165C12.7736 15.4813 14.1924 14.3306 15.0947 13.5601C15.4004 13.2991 15.6297 13.0939 15.8037 12.9292C15.7256 12.775 15.6262 12.5938 15.4629 12.2739C15.0375 11.4411 14.3784 10.014 14.7773 8.17725C15.4397 5.12752 18.065 3.63209 19.4277 2.80029L19.9209 2.49854L20.4971 2.45361Z" fill="#FBFBFA" stroke="black" stroke-width="4.82881"/>
</g>
</g>
</svg>
