<svg width="66" height="68" viewBox="0 0 66 68" fill="none" xmlns="http://www.w3.org/2000/svg">
<g id="chess pieces 3">
<g id="piece=queen, white=false">
<path id="queen" d="M32.6039 0C37.9893 1.52963 37.7764 6.07645 35.2352 10.1967C35.5132 14.0691 36.3341 31.3591 39.4057 32.731C44.1644 31.5734 45.4698 22.3808 45.6767 18.2322C45.8097 15.563 43.7662 8.47046 49.13 8.33713C50.11 8.3198 51.055 8.70035 51.7493 9.39249C54.423 12.0344 52.277 15.6758 50.2815 17.8764C49.6007 22.1254 48.0887 30.2709 50.2737 33.9773C51.3984 34.7066 50.8042 34.5892 52.115 34.3526C54.881 32.3809 57.1191 27.2752 58.393 24.153L58.3187 23.7477L58.2066 23.0966C57.6266 19.9139 58.4372 15.3232 62.5777 15.6497C63.5276 15.7179 64.4093 16.1681 65.0219 16.8974C67.2935 19.6571 64.7471 22.5824 62.78 24.4254C61.1343 33.7613 59.3585 38.4722 55.1852 46.805C56.1306 47.5347 56.2105 47.6885 56.9504 48.584C57.4193 51.1588 55.356 52.0033 54.2512 54.153C53.8819 54.8716 53.3196 56.8451 53.066 57.6869C56.4245 61.2413 56.6745 62.4572 57.3338 67.2862L33.7282 67.288C26.2353 67.3046 16.6844 67.5657 9.3835 67.1823C6.82539 65.4921 11.2562 59.405 12.7027 57.7353C11.5391 52.0617 9.2912 52.1865 8.76211 49.325C9.07228 48.0234 9.69899 47.668 10.7048 46.764C6.44838 38.4814 4.755 33.5356 3.14791 24.448C-5.09833 17.5036 5.13661 10.6834 8.00313 19.8863C8.33346 20.9233 7.40931 23.6112 7.75485 24.4158C9.05424 27.4432 11.8408 33.1324 14.5284 34.9507C18.6165 34.4799 16.0686 20.8727 15.6927 18.0041C13.9204 16.0861 12.1301 13.2924 13.2668 10.5554C14.1348 8.4655 16.857 7.78081 18.7371 9.04059C22.085 11.2832 20.109 14.7885 20.1995 17.9765C20.2558 20.3146 20.6816 22.7076 21.2556 24.982C22.1698 28.332 22.8026 30.8852 25.848 32.7243C29.6854 32.47 30.3047 15.0986 30.3927 11.7784C30.5165 7.09078 25.7483 3.75105 32.6039 0Z" fill="black"/>
</g>
</g>
</svg>
