<svg width="62" height="68" viewBox="0 0 62 68" fill="none" xmlns="http://www.w3.org/2000/svg">
<g id="chess pieces 3">
<g id="piece=rook, white=false">
<path id="rook" d="M25.3095 0L36.7261 0.0106205L36.9348 4.52349H43.3613L44.6194 0.530509L53.5365 0.587109L53.551 8.63317L46.7474 14.398C45.2733 22.2637 43.6036 33.8465 47.1223 41.3302C53.1082 45.7582 53.4729 44.6512 53.0241 52.6442C59.4651 56.3719 61.4093 59.6858 61.8439 67.0811L36.365 67.0882L0 67.0599C0.559864 60.3189 2.56625 55.8414 9.01618 52.8847C8.33996 42.0128 10.3806 46.9748 15.0159 40.3965C18.5958 35.3178 16.3832 20.4953 15.1888 14.4617C12.983 12.4705 10.7446 10.5147 8.47507 8.59776L8.51043 0.53759L17.2953 0.54113L18.5678 4.50225L25.0259 4.49163L25.3095 0Z" fill="black"/>
</g>
</g>
</svg>
