<svg width="61" height="69" viewBox="0 0 61 69" fill="none" xmlns="http://www.w3.org/2000/svg">
<g id="chess pieces 3">
<g id="piece=knight, white=true">
<path id="knight" d="M27.9248 9.33545C28.2355 10.6364 28.4223 11.5655 28.667 12.4214C28.9081 13.2644 29.107 13.6438 29.2451 13.8149C29.2954 13.8773 29.3215 13.9251 29.5605 13.9546C29.9228 13.9993 30.6459 13.959 31.9629 13.5571L33.1641 13.1899L34.1533 13.9634C46.0884 23.2844 52.776 38.8952 54.459 53.3413C55.2223 54.3841 56.2411 55.951 56.9629 57.5825C57.3926 58.5539 57.7854 59.6963 57.8818 60.8452C57.9789 62.0011 57.7921 63.4876 56.6533 64.6587L56.0312 65.2974L55.1436 65.3794C51.308 65.7325 45.4746 65.5669 41.7969 65.5669H41.7949L18.415 65.5483H18.4121L7.14648 65.5278L4.38574 65.522L4.75879 62.7866C5.89679 54.4404 12.1552 49.726 16.7949 45.9995C19.244 44.0324 21.212 42.3875 22.4697 40.5864C23.1694 39.5845 23.6313 38.5544 23.7803 37.3901C23.0217 37.471 22.2147 37.3676 21.1807 37.1489C21.0348 37.2328 20.8214 37.3788 20.5332 37.6118C19.771 38.2281 18.88 39.1357 17.8496 40.2026C16.8754 41.2114 15.7711 42.3679 14.7314 43.2612C14.2072 43.7117 13.6298 44.1574 13.0273 44.5024C12.4544 44.8305 11.6526 45.1888 10.7256 45.2056L10.0039 45.2183L9.39355 44.8325C9.03257 44.6046 8.48296 44.4311 7.53711 44.1567C7.13062 44.0388 6.62052 43.8906 6.14941 43.7085C5.69596 43.5332 5.07441 43.2522 4.5332 42.772L4.4707 42.7153C2.84505 41.168 2.29776 39.2652 2.43359 37.3872C2.55998 35.6412 3.26749 33.9566 4.01465 32.5347C4.77008 31.097 5.71037 29.6713 6.4541 28.5054C7.26284 27.2376 7.78243 26.3579 8.00293 25.7397V25.7388C8.97806 23.007 9.56218 20.9879 10.4307 19.2817C11.3039 17.5663 12.4637 16.1148 14.4297 14.1235L15.2471 9.73682L15.8359 6.57471L18.708 8.02295C19.3307 8.33703 19.8722 8.84896 20.2246 9.20459C20.6312 9.61492 21.0472 10.0917 21.4277 10.5474C21.4713 10.5996 21.5143 10.6531 21.5576 10.7056C22.3026 9.88261 23.0528 9.06503 23.8076 8.25244L26.877 4.94775L27.9248 9.33545Z" fill="#FBFBFA" stroke="black" stroke-width="4.82881"/>
</g>
</g>
</svg>
