<svg width="53" height="63" viewBox="0 0 53 63" fill="none" xmlns="http://www.w3.org/2000/svg">
<g id="chess pieces 3">
<g id="piece=Vector, white=true">
<path id="Vector" d="M23.917 2.50684C27.5544 2.2102 31.07 2.49174 34.4834 5.39551H34.4824C37.0389 7.54868 38.6278 10.6286 38.9072 13.9502L38.9307 14.2725V14.2793C39.0893 17.1397 38.3837 19.3877 37.2109 21.3477C37.2384 21.3559 37.2658 21.3636 37.293 21.3721C38.8618 21.8615 40.659 22.8886 41.4355 25.1553L41.7617 26.1064L41.3154 27.0078L40.8691 27.9111L40.6211 28.4111L40.1797 28.7529C37.7592 30.6197 35.6067 30.9914 33.4424 31.2158C33.3699 36.8659 33.4867 40.2289 34.7148 45.7178C36.0861 45.8079 37.3869 45.8989 38.5508 46.0479C40.2282 46.2625 41.8797 46.6206 43.3643 47.4053C46.5742 49.1019 48.1665 52.3091 49.0576 57.2578L49.5684 60.0977L46.6836 60.0996L28.7334 60.1162H28.7295L5.81055 60.1025L2.90625 60.1006L3.43945 57.2451C4.36476 52.2872 5.98012 49.09 9.18359 47.4023C10.6675 46.6206 12.3135 46.2657 13.9814 46.0537C15.1403 45.9064 16.4352 45.8163 17.7969 45.7275C19.0756 40.3423 19.1382 36.8144 19.0908 31.1758C18.9108 31.1539 18.7306 31.1341 18.5508 31.1113V31.1104C17.588 30.9889 15.7941 30.7712 14.293 30.0977C13.5192 29.7504 12.6185 29.1967 11.9639 28.2832C11.2567 27.2963 10.9873 26.0982 11.1904 24.8213L11.3047 24.1055L11.7939 23.5703C12.9146 22.3461 14.1998 21.7038 15.4521 21.333C13.7379 18.2953 13.122 15.0691 13.8486 11.9902C14.8567 7.71928 18.2828 4.42229 23.3047 2.6377L23.6025 2.53223L23.917 2.50684Z" fill="#FBFBFA" stroke="black" stroke-width="4.82881"/>
</g>
</g>
</svg>
