<svg width="52" height="67" viewBox="0 0 52 67" fill="none" xmlns="http://www.w3.org/2000/svg">
<g id="chess pieces 3">
<g id="piece=Vector, white=false">
<path id="Vector" d="M23.2476 0.0921992L23.6954 0.057186C27.7714 -0.232118 31.2848 0.531466 34.3993 3.37818C36.9712 5.72515 38.486 9.01112 38.6005 12.4909C38.7466 17.2231 36.8679 19.9714 33.827 23.1619C36.7003 23.4983 40.139 23.6953 42.0722 25.9478C42.7 30.038 34.3756 30.362 31.5982 30.5965C31.3404 39.6791 31.5169 46.0552 33.9257 54.7955C44.3364 55.2478 49.3703 55.257 51.4704 66.9109L28.841 66.9219C24.9562 66.9265 2.29499 67.1401 0.204787 66.6587C-0.717592 64.5611 1.69269 59.9474 3.12082 58.3205C6.18362 54.8319 12.8486 55.0501 17.2076 54.8008C19.8531 46.1687 19.6214 39.4914 19.4891 30.6092C16.2944 30.3885 10.8433 30.1809 9.20151 27.0562C9.41371 23.6129 14.6131 23.5022 17.3031 23.164C15.3087 21.1361 14.1589 19.7752 13.2277 16.9765C12.1458 13.7072 12.4122 10.1415 13.9673 7.06911C16.0447 3.0047 19.1302 1.31944 23.2476 0.0921992Z" fill="black"/>
</g>
</g>
</svg>
