<svg width="58" height="63" viewBox="0 0 58 63" fill="none" xmlns="http://www.w3.org/2000/svg">
<g id="chess pieces 3">
<g id="piece=king, white=true">
<path id="king" d="M26.4854 2.5127C30.4497 2.15671 33.7476 2.69251 35.4385 5.1875C36.2535 6.39025 36.4569 7.74265 36.4307 8.93457C36.4045 10.1189 36.1479 11.3344 35.8486 12.4453C35.5489 13.5576 35.1605 14.7253 34.8281 15.7656C34.5272 16.7073 34.2666 17.5678 34.0801 18.3594C37.3031 15.0906 42.0315 14.0704 46.0742 14.9609C50.703 15.9806 54.8263 19.6195 54.9268 25.5947C54.9865 29.1556 53.6332 31.9128 51.8486 34.1973C50.686 35.6855 49.2325 37.0879 47.8682 38.3779C48.0485 38.6777 48.2141 39.0198 48.3486 39.415L48.5996 40.1514L48.373 40.8955C47.9787 42.1924 47.2835 43.3031 46.7812 44.1484C46.385 44.8154 46.0291 45.4341 45.7354 46.127C46.2876 47.3943 47.1446 48.9286 48.0518 50.7705C48.5583 51.7989 49.0623 52.9022 49.4043 53.9492C49.7222 54.9227 50.0278 56.2116 49.7637 57.4629L49.5928 58.2705L48.9648 58.8037C48.8886 58.8685 48.3958 59.3306 47.9082 59.6152C47.2398 60.0054 46.5116 60.1765 45.6982 60.1631H45.6934C40.7049 60.0715 35.4136 60.0359 30.4561 60.043H29.5645C27.3234 60.0534 23.6496 60.1384 19.8525 60.1523C17.7324 60.1601 15.6161 60.1449 13.8242 60.0762C12.116 60.0106 10.4581 59.8915 9.40332 59.6221L8.36719 59.3574L7.86621 58.4111C7.11569 56.9922 7.41375 55.418 7.69434 54.4268C8.01062 53.3094 8.54825 52.1317 9.08203 51.0703C9.61574 50.0091 10.2355 48.8932 10.7158 47.9932C11.1438 47.1911 11.4511 46.5758 11.6338 46.1289C11.3381 45.3865 11.026 44.8469 10.6816 44.2871C10.2142 43.5271 9.58348 42.579 9.04004 41.1807L8.74414 40.418L8.97266 39.6328C9.10085 39.1916 9.25691 38.7601 9.50098 38.3477C8.6058 37.4975 7.65055 36.5701 6.78125 35.6182C5.25898 33.9512 3.73205 31.9433 2.97852 29.6553L2.96973 29.6289L2.96191 29.6016C0.0733949 20.0847 9.26663 11.8026 18.4248 15.291H18.4238C19.4195 15.6701 20.3621 16.3268 21.1309 16.9229C21.9181 17.5333 22.7329 18.2501 23.4082 18.8271C23.4735 18.8829 23.5379 18.9371 23.6006 18.9902C23.4471 18.2851 23.1644 17.4327 22.75 16.3633C22.2914 15.1796 21.6772 13.7074 21.2939 12.2422C20.9005 10.7382 20.678 9.00554 21.1201 7.19531L21.1953 6.91895C21.6035 5.57017 22.4726 4.67628 23.2998 4.07422C24.0861 3.50203 25.0759 3.0419 25.5859 2.77637L26.0098 2.55566L26.4854 2.5127Z" fill="#FBFBFA" stroke="black" stroke-width="4.82881"/>
</g>
</g>
</svg>
