<svg width="58" height="63" viewBox="0 0 58 63" fill="none" xmlns="http://www.w3.org/2000/svg">
<g id="chess pieces 3">
<g id="piece=rook, white=true">
<path id="rook" d="M35.7734 4.54199L35.9512 5.97461L36.9824 5.97656L37.3877 4.53613L37.8848 2.77148L39.7197 2.77637L46.8164 2.79785L49.2334 2.80469L49.2236 5.22266L49.1953 11.6416L49.1904 12.7422L48.3564 13.4609L43.6338 17.5273C42.4829 23.9619 41.7949 30.0609 43.5898 35.7373C44.0555 36.0757 44.5214 36.4165 44.9863 36.7617C46.854 38.1183 48.2004 39.4301 48.7256 41.3496C48.9676 42.2343 48.9945 43.1065 48.9736 43.9072C48.9642 44.2691 48.9407 44.6842 48.9141 45.1201C51.2618 46.6371 53.7831 48.8257 54.832 52.0342L54.9463 52.4082L55.0918 52.9443C55.2466 53.5377 55.417 54.2898 55.5068 55.0625C55.6116 55.9638 55.6881 57.4719 54.9561 58.749L54.4355 59.6582L53.415 59.8984C52.9338 60.0118 52.2971 60.0711 51.7012 60.1113C51.0541 60.155 50.272 60.1871 49.4121 60.21C47.6897 60.2557 45.5784 60.2674 43.4521 60.2637C39.2389 60.2562 34.7718 60.1834 33.2295 60.1748L15.6289 60.2236L15.6299 60.2246C14.4 60.2295 12.2617 60.2782 10.3408 60.2734C8.40322 60.2686 6.28851 60.2144 4.82129 59.9736L3.71484 59.792L3.13965 58.8291L2.75684 58.1885L2.41504 57.6162L2.41602 56.9482C2.41891 54.108 3.06576 51.5506 4.49707 49.374C5.63987 47.6362 7.20607 46.2585 9.10938 45.1865C9.08072 44.3065 9.07587 43.5269 9.12402 42.8408C9.20246 41.7236 9.42467 40.6753 10.001 39.6787C10.5571 38.7171 11.3313 38.0045 12.124 37.3701C12.751 36.8684 13.5839 36.2653 14.5029 35.5879C15.3361 33.0865 15.5679 30.0923 15.4375 26.875C15.309 23.7061 14.8396 20.4926 14.373 17.5391L9.56348 13.2881L8.75 12.5693L8.74805 11.4834L8.73828 5.20898L8.73438 2.79199L11.1514 2.79102L18.2266 2.78711L20.0381 2.78613L20.5459 4.52539L20.9951 6.06738C21.1563 6.07358 21.3203 6.07843 21.4951 6.07812C21.6858 6.07779 21.8549 6.06765 22.0059 6.05566C22.0095 5.99282 22.0148 5.91629 22.0195 5.82129C22.0345 5.52376 22.0544 5.12318 22.1064 4.61816L22.3291 2.45703L24.501 2.45117L33.3711 2.42676L35.5098 2.4209L35.7734 4.54199Z" fill="#FBFBFA" stroke="black" stroke-width="4.82881"/>
</g>
</g>
</svg>
