<svg width="45" height="77" viewBox="0 0 45 77" fill="none" xmlns="http://www.w3.org/2000/svg">
<g id="chess pieces 2">
<g id="piece=king, white=false" filter="url(#filter0_d_25_2)">
<path id="Vector" d="M8.9725 22.888C10.5875 22.3175 12.0625 20.8895 13.6975 20.2875C21.0725 17.5712 28.4725 18.8847 34.8925 23.22C33.9625 25.023 27.41 37.834 27.4875 38.7762L27.8475 39.7875C29.075 44.2402 30.37 48.6737 31.735 53.0862C32.47 55.536 33.5575 58.8417 33.97 61.307C36.12 61.27 38.785 61.2915 40.8775 61.0657C40.9425 64.6497 40.9775 68.2342 40.9775 71.8187L14.785 71.8015L2.125 71.8332C2.2775 69.902 2.32 63.138 2 61.2807C4.3275 61.2342 6.65749 61.2405 8.98499 61.2995C10.7675 54.282 13.6475 45.6305 15.795 38.5592C14.65 35.8885 8.96998 25.2845 8.57748 23.4152L8.9725 22.888Z" fill="black"/>
<path id="Vector_2" d="M27.8481 39.7876C29.0756 44.2403 30.3705 48.6738 31.7355 53.0863C32.4705 55.5361 33.5581 58.8418 33.9706 61.3071C36.1206 61.2701 38.7856 61.2916 40.8781 61.0658C40.9431 64.6498 40.9781 68.2343 40.9781 71.8188L14.7856 71.8016C14.5856 68.4596 14.823 65.0333 14.5605 61.5071C15.8705 61.3858 17.1755 61.4971 18.4905 61.5701C19.423 56.1496 19.623 49.3233 21.1555 44.1316C23.528 42.5993 25.2006 40.9346 27.8481 39.7876Z" fill="#2D2D2D"/>
<path id="Vector_3" d="M8.97266 22.888C10.5877 22.3175 12.0627 20.8895 13.6977 20.2875C21.0727 17.5712 28.4726 18.8847 34.8926 23.22C33.9626 25.023 27.4101 37.834 27.4876 38.7762C26.1976 38.2965 22.9552 38.2687 21.5327 38.2987C20.9077 33.3985 19.0977 28.7755 18.9452 23.6277C15.6202 23.0697 12.1652 23.3955 8.97266 22.888Z" fill="#2D2D2D"/>
<path id="Vector_4" d="M18.5449 1C19.6224 1.12925 21.0148 1.13799 22.1223 1.17499C22.9148 1.14649 23.7124 1.12749 24.5049 1.06374C24.3074 1.75874 23.4299 5.03024 23.1924 5.48299C24.1674 5.79049 26.5274 4.91299 27.8474 4.69249C27.8324 6.50549 27.7799 8.46374 27.8199 10.264C26.6449 9.99399 24.5498 9.21599 23.6273 9.50049C23.2648 10.0752 23.4448 10.187 23.5948 11.0182C23.8948 12.2342 24.7423 14.8887 24.2473 15.9227L23.7574 16.0317L21.9673 16.0637L18.4848 16.3165C18.8973 13.9875 19.2699 11.652 19.6049 9.31099L15.3948 10.273C15.3098 8.45799 15.3473 6.47474 15.2773 4.59874C16.6173 4.95399 18.3323 5.23774 19.7173 5.50699C19.3098 4.16549 18.9024 2.38675 18.5449 1Z" fill="black"/>
<path id="Vector_5" d="M23.193 5.48288C24.168 5.79038 26.528 4.91288 27.848 4.69238C27.833 6.50538 27.7805 8.46364 27.8205 10.2639C26.6455 9.99389 24.5505 9.21588 23.628 9.50038C23.2655 10.0751 23.4455 10.1869 23.5955 11.0181C23.8955 12.2341 24.743 14.8886 24.248 15.9226L23.758 16.0316L21.968 16.0636C21.603 13.8956 21.3955 8.07888 21.8355 6.04063C22.253 5.63088 22.5955 5.62388 23.193 5.48288Z" fill="#2D2D2D"/>
<path id="Vector_6" d="M23.7581 16.032L23.4606 15.7565C23.2056 14.2135 22.7531 12.2768 23.5956 11.0186C23.8956 12.2346 24.7431 14.8891 24.2481 15.923L23.7581 16.032Z" fill="#272C26"/>
<path id="Vector_7" d="M22.1224 1.17473C22.9149 1.14623 23.7124 1.12723 24.5049 1.06348C24.3074 1.75848 23.4299 5.02998 23.1924 5.48273C22.5949 5.62373 22.2524 5.63073 21.8349 6.04048C21.6224 4.32323 21.6999 2.84423 22.1224 1.17473Z" fill="#272C26"/>
</g>
</g>
<defs>
<filter id="filter0_d_25_2" x="0" y="0" width="44.9785" height="76.8335" filterUnits="userSpaceOnUse" color-interpolation-filters="sRGB">
<feFlood flood-opacity="0" result="BackgroundImageFix"/>
<feColorMatrix in="SourceAlpha" type="matrix" values="0 0 0 0 0 0 0 0 0 0 0 0 0 0 0 0 0 0 127 0" result="hardAlpha"/>
<feOffset dx="1" dy="2"/>
<feGaussianBlur stdDeviation="1.5"/>
<feComposite in2="hardAlpha" operator="out"/>
<feColorMatrix type="matrix" values="0 0 0 0 0 0 0 0 0 0 0 0 0 0 0 0 0 0 0.5 0"/>
<feBlend mode="normal" in2="BackgroundImageFix" result="effect1_dropShadow_25_2"/>
<feBlend mode="normal" in="SourceGraphic" in2="effect1_dropShadow_25_2" result="shape"/>
</filter>
</defs>
</svg>
