<svg width="46" height="62" viewBox="0 0 46 62" fill="none" xmlns="http://www.w3.org/2000/svg">
<g id="chess pieces 2">
<g id="piece=knight, white=true" filter="url(#filter0_d_25_2)">
<path id="Vector" d="M11.484 4.39149C13.3235 3.15749 14.921 2.095 16.8425 1C21.1452 3.83025 25.424 6.69674 29.678 9.59949C32.1688 11.3035 36.4248 14.346 39.043 15.7527C36.9878 17.921 34.8865 20.8458 33.0932 23.275C29.0935 19.3493 26.2168 19.365 21.4953 21.9847C21.7305 22.6897 25.1833 25.5737 26.2965 26.8905C29.628 30.0092 35.452 36.437 38.5802 38.751C35.9532 40.8835 32.634 43.4597 30.283 45.826C33.753 45.8357 37.5985 45.7845 41.04 45.9572C41.038 49.3727 40.9853 52.9718 41.0615 56.3733C39.9908 56.6355 32.7943 56.5112 31.2718 56.5337C21.6145 56.6762 11.633 56.237 2 56.4638L2.05025 46.011L8.14575 45.8197C9.35275 44.8082 9.19101 44.7842 9.70151 43.2142C7.96726 41.6655 6.3855 40.2702 4.56725 38.8247C5.97 37.6157 7.83 35.6825 9.19525 34.3462C4.9625 29.1295 2.61525 23.023 4.09225 16.1852C5.068 11.6687 7.51951 6.94324 11.484 4.39149Z" fill="white"/>
<path id="Vector_2" d="M9.19525 34.3464C4.9625 29.1296 2.61525 23.0231 4.09225 16.1854C5.068 11.6689 7.51951 6.94335 11.484 4.3916L12.1022 5.50585C8.834 12.3989 6.8915 17.3531 9.6935 25.1901C11.5287 30.3026 15.317 34.4781 20.227 36.8006C22.7623 37.9739 25.321 38.4791 28.0945 38.6046C26.7302 41.2034 26.047 43.1774 25.2708 46.0159C22.623 45.9916 19.975 45.9966 17.3273 46.0306C17.3128 49.3294 17.3673 52.9629 17.2608 56.2349L33.0683 56.2361C34.743 56.2339 39.6978 56.1429 41.0615 56.3734C39.9908 56.6356 32.7943 56.5114 31.2718 56.5339C21.6145 56.6764 11.633 56.2371 2 56.4639L2.05025 46.0111L8.14575 45.8199C9.35275 44.8084 9.19101 44.7844 9.70151 43.2144C7.96726 41.6656 6.3855 40.2704 4.56725 38.8249C5.97 37.6159 7.83 35.6826 9.19525 34.3464Z" fill="#EAEAEA"/>
<path id="Vector_3" d="M16.4992 16.583C17.9842 18.5333 19.7882 20.2148 21.4957 21.985C21.731 22.69 25.1837 25.574 26.297 26.8908C22.803 26.738 20.1515 26.6835 16.6907 27.1225C16.3802 24.6838 16.501 19.2855 16.4992 16.583Z" fill="#EAEAEA"/>
</g>
</g>
<defs>
<filter id="filter0_d_25_2" x="0" y="0" width="45.0615" height="61.563" filterUnits="userSpaceOnUse" color-interpolation-filters="sRGB">
<feFlood flood-opacity="0" result="BackgroundImageFix"/>
<feColorMatrix in="SourceAlpha" type="matrix" values="0 0 0 0 0 0 0 0 0 0 0 0 0 0 0 0 0 0 127 0" result="hardAlpha"/>
<feOffset dx="1" dy="2"/>
<feGaussianBlur stdDeviation="1.5"/>
<feComposite in2="hardAlpha" operator="out"/>
<feColorMatrix type="matrix" values="0 0 0 0 0 0 0 0 0 0 0 0 0 0 0 0 0 0 0.5 0"/>
<feBlend mode="normal" in2="BackgroundImageFix" result="effect1_dropShadow_25_2"/>
<feBlend mode="normal" in="SourceGraphic" in2="effect1_dropShadow_25_2" result="shape"/>
</filter>
</defs>
</svg>
