<svg width="45" height="71" viewBox="0 0 45 71" fill="none" xmlns="http://www.w3.org/2000/svg">
<g id="chess pieces 2">
<g id="piece=bishop, white=false" filter="url(#filter0_d_25_2)">
<path id="Vector" d="M21.4655 1C23.1012 3.15075 24.9998 5.785 26.8235 7.71725C26.0548 8.76125 25.125 9.759 24.2593 10.7305C25.554 12.5897 26.433 13.7467 27.9123 15.4585C28.665 14.3395 29.3965 13.3337 30.1955 12.2527C32.0128 14.497 33.5728 16.4712 35.2668 18.8275C33.4898 21.4042 31.5013 23.8612 29.5795 26.336C28.8598 27.263 28.018 28.6155 27.3413 29.4193L27.8628 30.7735L31.7653 46.8895C32.2643 48.9612 33.3458 52.8835 33.6225 54.7982L40.9493 54.7168L40.923 65.423C33.4578 64.9205 22.442 65.2665 14.718 65.3042C10.4815 65.2765 6.24476 65.2743 2.00801 65.298C2.22201 63.092 2.242 56.8977 2 54.7292L9.41 54.751L15.6573 28.9588C14.522 27.443 8.48376 20.0385 7.96301 18.9837L8.21451 18.4583C11.9685 13.8685 18.3062 5.685 21.4655 1Z" fill="black"/>
<path id="Vector_2" d="M27.8627 30.7734L31.7652 46.8894C32.2642 48.9612 33.3457 52.8834 33.6225 54.7982L40.9492 54.7167L40.923 65.4229C33.4577 64.9204 22.442 65.2664 14.718 65.3042L14.6787 54.9302C16.0697 54.7509 17.6157 54.7647 19.0287 54.7399C18.8817 50.6882 19.8577 38.5914 20.758 34.4839C22.9142 33.5739 26.0197 31.1384 27.8627 30.7734Z" fill="#2D2D2D"/>
<path id="Vector_3" d="M21.4658 1C23.1016 3.15075 25.0001 5.785 26.8238 7.71725C26.0551 8.76125 25.1253 9.759 24.2596 10.7305C25.5543 12.5897 26.4333 13.7467 27.9126 15.4585C28.6653 14.3395 29.3968 13.3337 30.1958 12.2527C32.0131 14.497 33.5731 16.4712 35.2671 18.8275C33.4901 21.4042 31.5016 23.8612 29.5798 26.336C28.8601 27.263 28.0183 28.6155 27.3416 29.4193C26.7691 28.6615 26.0371 27.1837 25.2756 26.1617C23.4321 23.6875 21.5698 21.231 19.7121 18.769C17.1976 18.7587 10.3353 18.8495 8.21484 18.4583C11.9688 13.8685 18.3066 5.685 21.4658 1Z" fill="#2D2D2D"/>
<path id="Vector_4" d="M21.7686 13.4537C22.5703 12.3847 23.1456 11.494 24.2598 10.7305C25.5546 12.5897 26.4336 13.7467 27.9128 15.4585C27.5498 16.2312 25.6998 17.7895 24.9898 18.4327C23.6788 16.727 22.4566 15.4705 21.7686 13.4537Z" fill="black"/>
</g>
</g>
<defs>
<filter id="filter0_d_25_2" x="0" y="0" width="44.9492" height="70.4229" filterUnits="userSpaceOnUse" color-interpolation-filters="sRGB">
<feFlood flood-opacity="0" result="BackgroundImageFix"/>
<feColorMatrix in="SourceAlpha" type="matrix" values="0 0 0 0 0 0 0 0 0 0 0 0 0 0 0 0 0 0 127 0" result="hardAlpha"/>
<feOffset dx="1" dy="2"/>
<feGaussianBlur stdDeviation="1.5"/>
<feComposite in2="hardAlpha" operator="out"/>
<feColorMatrix type="matrix" values="0 0 0 0 0 0 0 0 0 0 0 0 0 0 0 0 0 0 0.5 0"/>
<feBlend mode="normal" in2="BackgroundImageFix" result="effect1_dropShadow_25_2"/>
<feBlend mode="normal" in="SourceGraphic" in2="effect1_dropShadow_25_2" result="shape"/>
</filter>
</defs>
</svg>
