<svg width="46" height="74" viewBox="0 0 46 74" fill="none" xmlns="http://www.w3.org/2000/svg">
<g id="chess pieces 2">
<g id="piece=queen, white=true" filter="url(#filter0_d_25_2)">
<path id="Vector" d="M11.6125 7.23525C12.055 6.0845 13.56 1.85725 14.51 1.26325L14.785 1.48925C18.5875 4.825 19.3325 4.296 17.6825 9.02125C18.455 11.7758 20.195 15.4792 21.3175 18.2515C22.2325 17.396 24.8125 10.5975 25.4025 9.05375C25.0175 7.84675 24.5775 6.93025 24.05 5.7905C25.82 3.748 26.81 2.79975 28.8075 1L30.015 3.755L31.27 7.1505C30.41 7.9155 29.2725 8.86975 28.505 9.69225C28.71 12.884 28.485 16.45 28.54 19.7057C30.6 17.148 32.81 15.1318 34.7175 12.4673C34.76 11.1003 34.8425 9.6615 34.7275 8.30474C36.505 8.08824 38.225 7.52575 39.8875 6.8685C37.5725 12.1475 35.19 17.3967 32.74 22.6147C31.6975 24.864 30.095 28.6582 28.9625 30.6477C28.9925 31.1315 29.02 32.2782 29.185 32.6698C30.9675 39.83 32.595 50.0228 34.075 57.4855C36.37 57.5802 38.6675 57.6115 40.965 57.5785C40.975 60.9757 40.91 64.731 41.02 68.0977L18.6375 68.1265C13.08 68.1835 7.5625 68.0422 2 68.1752C2.0875 64.7622 2.0225 61.0652 2.0275 57.6312C4.275 57.6397 6.63248 57.569 8.88748 57.5375C10.455 49.005 12.195 39.7632 14.1175 31.3307C10.755 23.147 6.31498 14.9998 3.10498 7.01575C4.99498 7.5625 6.58498 8.02475 8.51498 8.41075C8.50998 9.80375 8.3475 11.0345 8.1875 12.4105C10.41 15.3172 12.1325 16.9702 14.4675 19.6535C14.495 16.3477 14.5075 13.042 14.5 9.73625C13.5625 8.89775 12.5675 8.06125 11.6125 7.23525Z" fill="#EAEAEA"/>
<path id="Vector_2" d="M20.1173 38.0279C23.2173 35.9564 25.7698 34.1654 29.1848 32.6699C30.9673 39.8302 32.5948 50.0229 34.0748 57.4857C36.3698 57.5804 38.6673 57.6117 40.9648 57.5787C40.9748 60.9759 40.9098 64.7312 41.0198 68.0979L18.6373 68.1267C17.6548 67.8419 15.8298 67.8997 14.7448 67.8872L14.7148 57.7104L18.9523 57.6767C19.0073 51.3599 19.7398 44.4057 20.1173 38.0279Z" fill="white"/>
<path id="Vector_3" d="M24.0503 5.7905C25.8203 3.748 26.8103 2.79975 28.8078 1L30.0153 3.755L31.2703 7.1505C30.4103 7.9155 29.2728 8.86975 28.5053 9.69225C28.7103 12.884 28.4853 16.45 28.5403 19.7057C30.6003 17.148 32.8103 15.1318 34.7178 12.4673C34.7603 11.1003 34.8428 9.6615 34.7278 8.30474C36.5053 8.08824 38.2253 7.52575 39.8878 6.8685C37.5728 12.1475 35.1903 17.3967 32.7403 22.6147C31.6978 24.864 30.0953 28.6582 28.9628 30.6477C28.2078 30.5277 21.8053 30.8785 20.5428 30.9285C20.1303 27.6815 18.9203 22.7317 18.2103 19.3092C17.1303 14.118 16.0578 6.904 14.5078 1.98825L14.7853 1.48925C18.5878 4.825 19.3328 4.296 17.6828 9.02125C18.4553 11.7758 20.1953 15.4792 21.3178 18.2515C22.2328 17.396 24.8128 10.5975 25.4028 9.05375C25.0178 7.84675 24.5778 6.93025 24.0503 5.7905Z" fill="white"/>
<path id="Vector_4" d="M24.0499 5.7905C25.8199 3.748 26.8099 2.79975 28.8074 1L30.0149 3.755L29.0799 3.2125C27.4274 4.58325 25.2149 20.5922 23.4549 24.9297C22.9299 22.654 21.5424 19.5002 21.3174 18.2515C22.2324 17.396 24.8124 10.5975 25.4024 9.05375C25.0174 7.84675 24.5774 6.93025 24.0499 5.7905Z" fill="#EAEAEA"/>
</g>
</g>
<defs>
<filter id="filter0_d_25_2" x="0" y="0" width="45.0195" height="73.1753" filterUnits="userSpaceOnUse" color-interpolation-filters="sRGB">
<feFlood flood-opacity="0" result="BackgroundImageFix"/>
<feColorMatrix in="SourceAlpha" type="matrix" values="0 0 0 0 0 0 0 0 0 0 0 0 0 0 0 0 0 0 127 0" result="hardAlpha"/>
<feOffset dx="1" dy="2"/>
<feGaussianBlur stdDeviation="1.5"/>
<feComposite in2="hardAlpha" operator="out"/>
<feColorMatrix type="matrix" values="0 0 0 0 0 0 0 0 0 0 0 0 0 0 0 0 0 0 0.5 0"/>
<feBlend mode="normal" in2="BackgroundImageFix" result="effect1_dropShadow_25_2"/>
<feBlend mode="normal" in="SourceGraphic" in2="effect1_dropShadow_25_2" result="shape"/>
</filter>
</defs>
</svg>
