<svg width="45" height="77" viewBox="0 0 45 77" fill="none" xmlns="http://www.w3.org/2000/svg">
<g id="chess pieces 2">
<g id="piece=king, white=true" filter="url(#filter0_d_25_2)">
<path id="Vector" d="M9.05002 22.4477C18.12 17.3359 25.7125 17.4034 34.5875 22.9934C32.645 27.3002 29.635 33.9917 27.29 38.0022C27.3325 38.3744 27.425 39.3794 27.5025 39.6899C27.8925 40.5944 28.195 41.5162 28.4675 42.4617C30.26 48.6772 32.305 54.8339 33.82 61.1244C36.1575 61.1142 38.495 61.1542 40.83 61.2444L40.8175 71.6359C32.7075 71.7704 24.595 71.7992 16.485 71.7219C11.99 71.8912 6.665 71.6972 2 71.7679C2.085 68.3602 2.025 64.6934 2.03 61.2664C4.305 61.1637 6.58502 61.1269 8.86252 61.1562C10.575 54.5147 14.08 44.9302 15.2625 38.3804C15.5575 36.7487 8.43253 25.0994 8.49503 22.9549L9.05002 22.4477Z" fill="#EAEAEA"/>
<path id="Vector_2" d="M20.6151 44.0309C22.3476 43.2429 25.5176 40.8869 27.5026 39.6904C27.8926 40.5949 28.1951 41.5167 28.4676 42.4622C30.2601 48.6777 32.3051 54.8344 33.8201 61.1249C36.1576 61.1147 38.4951 61.1547 40.8301 61.2449L40.8176 71.6364C32.7076 71.7709 24.5951 71.7997 16.4851 71.7224C16.2026 71.5269 15.3126 71.5259 14.6151 71.3017C14.3426 68.7809 14.5151 64.0024 14.5351 61.3154L18.5001 61.2717C18.8226 55.8742 19.9501 49.5177 20.6151 44.0309Z" fill="white"/>
<path id="Vector_3" d="M9.0498 22.4477C18.1198 17.3359 25.7123 17.4034 34.5873 22.9934C32.6448 27.3002 29.6348 33.9917 27.2898 38.0022C25.5323 38.1594 23.5648 38.7004 21.9198 38.1267C20.8473 36.8712 18.8923 25.5779 18.4248 23.0759C16.6398 23.1969 10.3373 23.4432 9.0498 22.4477Z" fill="white"/>
<path id="Vector_4" d="M22.507 1.00513C23.5395 1.03613 23.6471 0.849629 24.2421 1.43113C24.4371 2.41163 23.6171 4.08013 23.2946 5.15913C24.7671 5.02013 26.3396 4.84513 27.8071 4.73938C27.7746 6.39813 27.6845 8.35363 27.757 9.98838C26.287 9.81363 24.8146 9.68438 23.3896 9.28788C23.7171 11.4106 24.247 14.0676 24.472 16.1274L21.2446 16.0516C20.4371 16.0306 19.182 16.1426 18.342 16.1946C18.5595 13.8596 19.1696 11.5406 19.7096 9.25538L15.0771 9.96838C15.1371 8.09863 15.1346 6.60638 15.0596 4.73763C16.8396 4.97988 17.8795 5.16563 19.687 5.05963C19.2295 3.92913 18.6871 2.19938 18.2746 1.00888C19.5746 1.08713 21.182 1.02238 22.507 1.00513Z" fill="white"/>
<path id="Vector_5" d="M19.687 5.0593C20.3245 5.66555 20.8471 6.1038 21.3296 6.84455C21.8146 9.66105 21.3171 13.1941 21.2446 16.0513C20.4371 16.0303 19.182 16.1423 18.342 16.1943C18.5595 13.8593 19.1696 11.5403 19.7096 9.25505L15.0771 9.96805C15.1371 8.0983 15.1346 6.60605 15.0596 4.7373C16.8396 4.97955 17.8795 5.1653 19.687 5.0593Z" fill="#EAEAEA"/>
<path id="Vector_6" d="M18.2754 1.00863C19.5754 1.08688 21.1829 1.02213 22.5079 1.00488C20.3029 2.14013 21.3329 4.65363 21.3304 6.84463C20.8479 6.10388 20.3254 5.66563 19.6879 5.05938C19.2304 3.92888 18.6879 2.19913 18.2754 1.00863Z" fill="#EAEAEA"/>
</g>
</g>
<defs>
<filter id="filter0_d_25_2" x="0" y="0" width="44.8301" height="76.7935" filterUnits="userSpaceOnUse" color-interpolation-filters="sRGB">
<feFlood flood-opacity="0" result="BackgroundImageFix"/>
<feColorMatrix in="SourceAlpha" type="matrix" values="0 0 0 0 0 0 0 0 0 0 0 0 0 0 0 0 0 0 127 0" result="hardAlpha"/>
<feOffset dx="1" dy="2"/>
<feGaussianBlur stdDeviation="1.5"/>
<feComposite in2="hardAlpha" operator="out"/>
<feColorMatrix type="matrix" values="0 0 0 0 0 0 0 0 0 0 0 0 0 0 0 0 0 0 0.5 0"/>
<feBlend mode="normal" in2="BackgroundImageFix" result="effect1_dropShadow_25_2"/>
<feBlend mode="normal" in="SourceGraphic" in2="effect1_dropShadow_25_2" result="shape"/>
</filter>
</defs>
</svg>
