<svg width="46" height="61" viewBox="0 0 46 61" fill="none" xmlns="http://www.w3.org/2000/svg">
<g id="chess pieces 2">
<g id="piece=rook, white=false" filter="url(#filter0_d_25_2)">
<path id="Vector" d="M19.1042 1.04436C21.347 1.00861 24.371 1.21611 26.4187 1.06911L26.3995 5.76585C28.4272 5.83411 30.0975 5.90236 32.1215 5.76961C32.09 4.21286 32.0685 2.65585 32.0573 1.09885C34.1553 1.1636 35.8773 1.10186 37.9772 1.00536C37.9502 5.24786 37.6775 13.4666 38.023 17.4344C37.2912 18.3396 33.442 20.0284 31.9603 21.2906C32.5435 23.7631 32.9002 28.9379 33.1097 31.6546C33.4365 35.8861 34.048 40.6139 34.2668 44.8036C36.5315 44.7756 38.8967 44.7839 41.1512 44.7159C41.0845 48.2339 41.0723 51.7528 41.1145 55.2713L14.9163 55.2936C13.2043 55.2898 3.58325 55.5636 2.72525 55.2263C2.39575 54.9026 2.12625 54.7036 2.11875 54.1618C2.07475 51.0253 2.2705 47.8968 2 44.7531C4.258 44.7296 6.5785 44.7698 8.84225 44.7818C9.28775 37.6201 10.4485 28.2656 11.1852 20.9523C9.668 20.3598 7.4405 18.7164 5.43625 17.8051L5.4185 1.04585C7.37825 1.0471 9.338 1.03236 11.2975 1.00136L11.151 5.75011C12.276 5.74011 13.1125 5.78335 14.2357 5.87085C15.0457 5.9636 15.6573 6.12935 16.3773 5.80135C16.8133 5.18935 16.701 3.59935 16.8418 2.53185L17.0242 1.39586C17.794 0.82661 17.9157 1.03611 19.1042 1.04436Z" fill="black"/>
<path id="Vector_2" d="M19.1984 28.871C22.7074 27.204 28.0324 23.3503 31.9601 21.2905C32.5434 23.763 32.9001 28.9378 33.1096 31.6545C33.4364 35.886 34.0479 40.6138 34.2666 44.8035C36.5314 44.7755 38.8966 44.7838 41.1511 44.7158C41.0844 48.2338 41.0721 51.7528 41.1144 55.2713L14.9161 55.2935L14.6816 44.8095C16.0086 44.8958 17.1241 44.8728 18.4446 44.846C18.8574 39.8765 18.9736 33.933 19.1984 28.871Z" fill="#2D2D2D"/>
<path id="Vector_3" d="M19.1046 1.04436C21.3474 1.00861 24.3714 1.21611 26.4191 1.06911L26.3999 5.76585C28.4276 5.83411 30.0979 5.90236 32.1219 5.76961C32.0904 4.21286 32.0689 2.65585 32.0576 1.09885C34.1556 1.1636 35.8776 1.10186 37.9776 1.00536C37.9506 5.24786 37.6779 13.4666 38.0234 17.4344C37.2519 17.2681 31.6896 17.4224 30.4446 17.4236L14.2084 17.2901C14.2271 15.1134 13.8876 7.51935 14.2361 5.87085C15.0461 5.9636 15.6576 6.12935 16.3776 5.80135C16.8136 5.18935 16.7014 3.59935 16.8421 2.53185L17.0246 1.39586C17.7944 0.82661 17.9161 1.03611 19.1046 1.04436Z" fill="#2D2D2D"/>
<path id="Vector_4" d="M16.8418 2.53185L17.0243 1.39586C17.794 0.82661 17.9158 1.03611 19.1043 1.04436C20.4198 1.19536 20.5363 0.995101 21.4253 1.6931C21.934 2.57335 21.7038 4.7261 21.7488 5.99635C20.3675 6.0446 18.2775 6.05511 16.9605 6.22736C16.9263 5.07811 16.9253 3.6541 16.8418 2.53185Z" fill="black"/>
</g>
</g>
<defs>
<filter id="filter0_d_25_2" x="0" y="0" width="45.1514" height="60.395" filterUnits="userSpaceOnUse" color-interpolation-filters="sRGB">
<feFlood flood-opacity="0" result="BackgroundImageFix"/>
<feColorMatrix in="SourceAlpha" type="matrix" values="0 0 0 0 0 0 0 0 0 0 0 0 0 0 0 0 0 0 127 0" result="hardAlpha"/>
<feOffset dx="1" dy="2"/>
<feGaussianBlur stdDeviation="1.5"/>
<feComposite in2="hardAlpha" operator="out"/>
<feColorMatrix type="matrix" values="0 0 0 0 0 0 0 0 0 0 0 0 0 0 0 0 0 0 0.5 0"/>
<feBlend mode="normal" in2="BackgroundImageFix" result="effect1_dropShadow_25_2"/>
<feBlend mode="normal" in="SourceGraphic" in2="effect1_dropShadow_25_2" result="shape"/>
</filter>
</defs>
</svg>
