<svg width="46" height="62" viewBox="0 0 46 62" fill="none" xmlns="http://www.w3.org/2000/svg">
<g id="chess pieces 2">
<g id="piece=knight, white=false" filter="url(#filter0_d_25_2)">
<path id="Vector" d="M15.5315 1.34131C16.0847 1.08831 16.593 0.810818 17.2165 1.17557C24.606 5.50032 31.4852 11.1773 38.8965 15.4653C37.0148 18.0073 34.864 20.6346 33.0557 23.1386C28.8967 19.0098 26.4855 19.4611 21.3715 21.4531C22.153 22.7068 24.9555 25.0698 26.1775 26.4676C29.903 30.0008 34.9152 35.6893 38.6935 38.7066C35.9627 40.5551 32.4343 43.5986 29.774 45.7396L41.0175 45.7146C41.0548 49.2428 41.0477 52.7713 40.9965 56.2993C33.3682 56.2566 24.8665 56.4768 17.3715 56.2626C12.3002 56.2968 7.05125 56.1536 2 56.3191C2.055 52.7836 2.06474 49.2476 2.02974 45.7118L12.9753 45.7226L4.46974 38.4683C6.16874 37.2366 7.7455 35.6286 9.2635 34.1611C8.1325 33.0891 6.907 31.2178 6.151 29.8263C3.55 24.9841 2.97625 19.3078 4.5555 14.0428C6.31525 8.31982 10.3405 4.10106 15.5315 1.34131Z" fill="#2D2D2D"/>
<path id="Vector_2" d="M15.5315 1.34131C15.6425 1.93156 15.7485 1.90507 15.4272 2.30582C14.1805 3.95332 11.9512 5.85481 10.974 7.67006C8.9255 11.4743 7.99325 17.6586 8.8515 21.9058C11.0108 32.5951 18.226 36.7028 27.8702 38.8523C26.5297 40.9883 25.895 43.5601 25.2055 45.9871L17.383 45.9956C17.3505 49.2788 17.2715 52.9918 17.3715 56.2626C12.3002 56.2968 7.05125 56.1536 2 56.3191C2.055 52.7836 2.06474 49.2476 2.02974 45.7118L12.9753 45.7226L4.46974 38.4683C6.16874 37.2366 7.7455 35.6286 9.2635 34.1611C8.1325 33.0891 6.907 31.2178 6.151 29.8263C3.55 24.9841 2.97625 19.3078 4.5555 14.0428C6.31525 8.31982 10.3405 4.10106 15.5315 1.34131Z" fill="black"/>
<path id="Vector_3" d="M16.5071 16.7822C17.6169 18.1167 21.0266 20.9327 21.3711 21.4527C22.1526 22.7065 24.9551 25.0695 26.1771 26.4672C25.1854 27.006 17.9759 26.7442 16.3896 26.7207C16.4954 23.409 16.5346 20.0955 16.5071 16.7822Z" fill="black"/>
</g>
</g>
<defs>
<filter id="filter0_d_25_2" x="0" y="0" width="45.041" height="61.3579" filterUnits="userSpaceOnUse" color-interpolation-filters="sRGB">
<feFlood flood-opacity="0" result="BackgroundImageFix"/>
<feColorMatrix in="SourceAlpha" type="matrix" values="0 0 0 0 0 0 0 0 0 0 0 0 0 0 0 0 0 0 127 0" result="hardAlpha"/>
<feOffset dx="1" dy="2"/>
<feGaussianBlur stdDeviation="1.5"/>
<feComposite in2="hardAlpha" operator="out"/>
<feColorMatrix type="matrix" values="0 0 0 0 0 0 0 0 0 0 0 0 0 0 0 0 0 0 0.5 0"/>
<feBlend mode="normal" in2="BackgroundImageFix" result="effect1_dropShadow_25_2"/>
<feBlend mode="normal" in="SourceGraphic" in2="effect1_dropShadow_25_2" result="shape"/>
</filter>
</defs>
</svg>
