<svg width="46" height="61" viewBox="0 0 46 61" fill="none" xmlns="http://www.w3.org/2000/svg">
<g id="chess pieces 2">
<g id="piece=rook, white=true" filter="url(#filter0_d_25_2)">
<path id="Vector" d="M17.0393 1.03925L22.0238 1.0045C23.5317 1.016 25.0667 1.01175 26.572 1.04525L26.53 5.51475L32.1288 5.49075L32.1133 1.008L38.0462 1C38.0425 3.00525 38.3202 16.3088 37.6395 17.5208L36.7917 17.9482C35.5825 18.6385 32.5617 20.4707 32.1957 21.7262C32.6745 24.072 32.909 27.9427 33.1335 30.4105C33.581 35.1082 33.99 39.8098 34.36 44.5143C36.6405 44.5578 38.9207 44.6135 41.2007 44.6818C41.0865 47.6508 41.0593 52.1025 41.2558 55.0675C35.782 55.18 30.307 55.2203 24.8323 55.1878C21.8593 55.1885 17.7095 55.2888 14.7885 55.1035C11.4435 55.3358 5.6975 55.129 2 55.1943C2.2185 51.7955 2.1875 48.0067 2.229 44.5752C4.38425 44.63 6.7275 44.588 8.899 44.593C9.866 37.0518 10.5117 28.464 11.237 20.8205C9.6945 20.121 7.12425 18.5817 5.572 17.7155C5.43125 12.2695 5.5195 6.4785 5.5115 1.00675L11.4467 1.06675L11.2477 5.47925C13.2032 5.473 14.9132 5.46925 16.8652 5.60175C17.0372 4.40825 17.015 2.3065 17.0393 1.03925Z" fill="#EAEAEA"/>
<path id="Vector_2" d="M19.3007 28.9747C22.2759 26.6572 26.8182 24.1567 30.1282 22.197C30.9012 21.7392 31.4104 21.4825 32.1962 21.7262C32.6749 24.072 32.9094 27.9427 33.1339 30.4105C33.5814 35.1082 33.9904 39.8097 34.3604 44.5142C36.6409 44.5577 38.9212 44.6135 41.2012 44.6817C41.0869 47.6507 41.0597 52.1025 41.2562 55.0675C35.7824 55.18 30.3074 55.2202 24.8327 55.1877C21.8597 55.1885 17.7099 55.2887 14.7889 55.1035C14.9612 52.3762 14.7914 47.612 14.7744 44.7337L18.5297 44.7165C18.5362 39.7182 19.0282 34.011 19.3007 28.9747Z" fill="white"/>
<path id="Vector_3" d="M17.0396 1.03925L22.0241 1.0045C23.5321 1.016 25.0671 1.01175 26.5723 1.04525L26.5303 5.51475L32.1291 5.49075L32.1136 1.008L38.0466 1C38.0428 3.00525 38.3206 16.3088 37.6398 17.5208L36.7921 17.9482C34.6766 16.8252 17.5606 17.2625 14.0613 17.2445C14.2803 14.242 14.0413 8.82025 13.9873 5.628C15.1718 5.761 15.7166 5.88075 16.8656 5.60175C17.0376 4.40825 17.0153 2.3065 17.0396 1.03925Z" fill="white"/>
<path id="Vector_4" d="M17.0392 1.03915L22.0237 1.00439C21.628 2.27814 21.7772 4.52715 21.6937 5.94215C19.4382 6.0179 19.0862 5.9264 16.8652 5.60165C17.0372 4.40815 17.015 2.3064 17.0392 1.03915Z" fill="#EAEAEA"/>
</g>
</g>
<defs>
<filter id="filter0_d_25_2" x="0" y="0" width="45.2559" height="60.2173" filterUnits="userSpaceOnUse" color-interpolation-filters="sRGB">
<feFlood flood-opacity="0" result="BackgroundImageFix"/>
<feColorMatrix in="SourceAlpha" type="matrix" values="0 0 0 0 0 0 0 0 0 0 0 0 0 0 0 0 0 0 127 0" result="hardAlpha"/>
<feOffset dx="1" dy="2"/>
<feGaussianBlur stdDeviation="1.5"/>
<feComposite in2="hardAlpha" operator="out"/>
<feColorMatrix type="matrix" values="0 0 0 0 0 0 0 0 0 0 0 0 0 0 0 0 0 0 0.5 0"/>
<feBlend mode="normal" in2="BackgroundImageFix" result="effect1_dropShadow_25_2"/>
<feBlend mode="normal" in="SourceGraphic" in2="effect1_dropShadow_25_2" result="shape"/>
</filter>
</defs>
</svg>
