<svg width="45" height="74" viewBox="0 0 45 74" fill="none" xmlns="http://www.w3.org/2000/svg">
<g id="chess pieces 2">
<g id="piece=queen, white=false" filter="url(#filter0_d_25_2)">
<path id="Vector" d="M14.54 19.7307C14.4875 16.9917 14.6925 14.047 14.48 11.3317C14.25 8.41574 13.3475 8.88924 11.93 7.71324C11.9225 6.59149 13.59 1.3805 14.615 1C14.9425 1.56975 15.1675 2.03324 15.4475 2.62849C16.7175 3.53274 17.9025 4.80275 19.085 5.40025C18.5075 6.67725 17.915 7.91901 17.48 9.25301C18.165 10.725 21.0925 17.4415 21.625 18.112C22.425 15.6975 24.365 11.642 25.3925 9.022C24.89 8.0035 24.4 6.60825 23.985 5.522C25.0425 4.68225 27.88 1.161 28.865 1.35175L28.98 2.043C29.94 4.19725 30.35 5.10951 31.01 7.35001L31.0525 7.50224C29.94 8.42399 29.2925 8.948 28.3275 10.0542C28.5025 13.1967 28.4875 16.6647 28.5375 19.8335C30.6825 17.3247 33.16 14.6168 34.79 11.7753C34.49 6.956 36.0625 8.575 39.6825 6.965C37.7575 12.205 35.2025 17.2922 32.8375 22.3517C31.645 24.9052 29.9875 27.733 29.3825 30.4792C28.875 32.7717 33.195 54.2652 34.1775 57.7735C36.44 57.6552 38.7025 57.571 40.9675 57.5205C40.9575 61.0402 40.8925 64.7782 40.985 68.2762C38.2475 67.9757 33.8425 68.097 30.935 68.101L14.5425 68.125C11.58 68.1175 4.61 67.9302 2 68.2997C2.0475 65.0867 2.22 60.6997 2.03 57.6065C4.295 57.4975 6.64001 57.5775 8.91251 57.6217C10.1025 50.3307 11.7875 43.0313 13.1175 35.7583C13.395 34.2443 13.75 32.7687 14.1825 31.2912C10.3925 23.2332 6.68751 15.1345 3.07251 6.996C4.60501 7.5525 7.03 8.161 8.6575 8.6185C8.2675 9.79475 8.2575 11.2725 8.185 12.531C10.18 14.9098 12.465 17.412 14.54 19.7307Z" fill="#2D2D2D"/>
<path id="Vector_2" d="M14.54 19.7307C14.4875 16.9917 14.6925 14.047 14.48 11.3317C14.25 8.41574 13.3475 8.88924 11.93 7.71324C11.9225 6.59149 13.59 1.3805 14.615 1C14.9425 1.56975 15.1675 2.03324 15.4475 2.62849C14.4575 5.53624 16.4 8.9345 16.71 11.7285C17.39 17.8848 19.8425 24.5845 20.395 30.574C22.5125 30.7585 27.4825 30.5365 28.705 31.4772C29.165 33.8655 20.1625 36.8593 20.1375 38.7218C20.06 44.3243 18.89 52.1625 18.975 57.6L14.7475 57.6382C14.615 61.1655 14.6725 64.6535 14.5425 68.125C11.58 68.1175 4.61 67.9302 2 68.2997C2.0475 65.0867 2.22 60.6997 2.03 57.6065C4.295 57.4975 6.64001 57.5775 8.91251 57.6217C10.1025 50.3307 11.7875 43.0313 13.1175 35.7583C13.395 34.2443 13.75 32.7687 14.1825 31.2912C10.3925 23.2332 6.68751 15.1345 3.07251 6.996C4.60501 7.5525 7.03 8.161 8.6575 8.6185C8.2675 9.79475 8.2575 11.2725 8.185 12.531C10.18 14.9098 12.465 17.412 14.54 19.7307Z" fill="black"/>
<path id="Vector_3" d="M23.9849 5.52196C25.0424 4.68221 27.8799 1.16095 28.8649 1.3517L28.9799 2.04296C29.9399 4.19721 30.3499 5.10946 31.0099 7.34996L31.0524 7.5022C29.9399 8.42395 29.2924 8.94795 28.3274 10.0542C28.2849 9.87395 28.1374 9.55621 28.0624 9.37146L27.0649 9.20795C25.7499 14.4199 25.3499 19.4985 23.9624 24.5697C23.4374 23.3942 21.0499 19.0402 21.6249 18.112C22.4249 15.6975 24.3649 11.642 25.3924 9.02196C24.8899 8.00346 24.3999 6.60821 23.9849 5.52196Z" fill="black"/>
<path id="Vector_4" d="M28.9795 2.04297C29.9395 4.19722 30.3495 5.10948 31.0095 7.34998L31.0519 7.50221C29.9394 8.42396 29.2919 8.94796 28.3269 10.0542C28.2844 9.87396 28.137 9.55623 28.062 9.37148L27.0645 9.20796C27.8595 6.92246 28.107 3.53422 28.9795 2.04297Z" fill="#272C26"/>
</g>
</g>
<defs>
<filter id="filter0_d_25_2" x="0" y="0" width="44.9854" height="73.2998" filterUnits="userSpaceOnUse" color-interpolation-filters="sRGB">
<feFlood flood-opacity="0" result="BackgroundImageFix"/>
<feColorMatrix in="SourceAlpha" type="matrix" values="0 0 0 0 0 0 0 0 0 0 0 0 0 0 0 0 0 0 127 0" result="hardAlpha"/>
<feOffset dx="1" dy="2"/>
<feGaussianBlur stdDeviation="1.5"/>
<feComposite in2="hardAlpha" operator="out"/>
<feColorMatrix type="matrix" values="0 0 0 0 0 0 0 0 0 0 0 0 0 0 0 0 0 0 0.5 0"/>
<feBlend mode="normal" in2="BackgroundImageFix" result="effect1_dropShadow_25_2"/>
<feBlend mode="normal" in="SourceGraphic" in2="effect1_dropShadow_25_2" result="shape"/>
</filter>
</defs>
</svg>
