<svg width="46" height="71" viewBox="0 0 46 71" fill="none" xmlns="http://www.w3.org/2000/svg">
<g id="chess pieces 2">
<g id="piece=bishop, white=true" filter="url(#filter0_d_25_2)">
<path id="Vector" d="M21.6223 1C23.267 3.32875 25.0408 5.5635 26.9355 7.6935C26.0443 8.67475 25.1457 9.80875 24.296 10.8382C25.0907 12.225 26.603 14.3903 27.9982 15.2153C28.6695 14.256 29.5165 13.1283 30.018 12.0928C31.405 13.8045 34.0315 17.3167 35.4263 18.7738C33.0433 21.8635 30.0545 25.9605 27.5647 28.8363C27.5415 29.232 27.4792 29.4858 27.5922 29.8475C29.023 34.6713 30.1898 39.994 31.3828 44.891C32.0623 47.68 33.2463 51.9318 33.5845 54.6763C36.0523 54.6993 38.52 54.6935 40.9875 54.6588C40.9943 58.1283 40.9445 61.7683 41.015 65.2235C33.6335 65.3118 26.2515 65.3337 18.8698 65.29C14.1828 65.5462 7.005 65.271 2 65.3223C2.11075 61.7955 2.13699 58.2665 2.07899 54.7385C4.58299 54.686 7.08825 54.6853 9.5925 54.7365C10.9185 47.641 13.1252 40.4785 14.6348 33.3985C14.9278 32.0255 15.302 30.6433 15.7625 29.3165C13.8007 26.0878 10.3817 22.0263 8.01399 18.8783C8.19524 18.0895 20.1108 2.9795 21.6223 1Z" fill="#EAEAEA"/>
<path id="Vector_2" d="M20.5276 34.7847C24.4491 32.6707 24.3413 32.2537 27.4728 29.9342L27.5916 29.8477C29.0223 34.6714 30.1891 39.9942 31.3821 44.8912C32.0616 47.6802 33.2456 51.9319 33.5838 54.6764C36.0516 54.6994 38.5193 54.6937 40.9868 54.6589C40.9936 58.1284 40.9438 61.7684 41.0143 65.2237C33.6328 65.3119 26.2508 65.3339 18.8691 65.2902C17.7498 64.9899 15.9496 65.0629 14.7398 65.0584L14.7158 54.8734L18.9611 54.8117C19.0923 49.3054 20.0821 40.5147 20.5276 34.7847Z" fill="white"/>
<path id="Vector_3" d="M21.6219 1C23.2667 3.32875 25.0404 5.5635 26.9352 7.6935C26.0439 8.67475 25.1454 9.80875 24.2957 10.8382C25.0904 12.225 26.6027 14.3903 27.9979 15.2153C28.6692 14.256 29.5162 13.1283 30.0177 12.0928C31.4047 13.8045 34.0312 17.3167 35.4259 18.7738C33.0429 21.8635 30.0542 25.9605 27.5644 28.8363C26.7404 28.392 22.1077 21.2575 20.0207 19.7503C17.6134 18.0118 10.7504 18.4425 8.01367 18.8783C8.19492 18.0895 20.1104 2.9795 21.6219 1Z" fill="white"/>
<path id="Vector_4" d="M21.7744 14.2166C22.4177 12.8689 23.2309 11.8614 24.2952 10.8384C25.0899 12.2251 26.6022 14.3904 27.9974 15.2154C27.4934 16.3704 25.9319 17.9901 25.0267 18.9319C24.1414 16.9669 23.2184 15.7596 21.7744 14.2166Z" fill="#EAEAEA"/>
</g>
</g>
<defs>
<filter id="filter0_d_25_2" x="0" y="0" width="45.0146" height="70.4009" filterUnits="userSpaceOnUse" color-interpolation-filters="sRGB">
<feFlood flood-opacity="0" result="BackgroundImageFix"/>
<feColorMatrix in="SourceAlpha" type="matrix" values="0 0 0 0 0 0 0 0 0 0 0 0 0 0 0 0 0 0 127 0" result="hardAlpha"/>
<feOffset dx="1" dy="2"/>
<feGaussianBlur stdDeviation="1.5"/>
<feComposite in2="hardAlpha" operator="out"/>
<feColorMatrix type="matrix" values="0 0 0 0 0 0 0 0 0 0 0 0 0 0 0 0 0 0 0.5 0"/>
<feBlend mode="normal" in2="BackgroundImageFix" result="effect1_dropShadow_25_2"/>
<feBlend mode="normal" in="SourceGraphic" in2="effect1_dropShadow_25_2" result="shape"/>
</filter>
</defs>
</svg>
